<svg xmlns="http://www.w3.org/2000/svg" width="152" height="152" viewBox="0 0 152 152"><defs><style>.a{fill:#fff;}.b{fill:#1a1a1a;}</style></defs><g transform="translate(-370 -5947)"><circle class="a" cx="76" cy="76" r="76" transform="translate(370 5947)"/><path class="b" d="M93.909,75.07,60.4,49.333a7.429,7.429,0,0,0-8.293.009c-2.44,1.7-2.722,4.53-.553,6.311L65.49,67H22.938c-3.512,0-6.889,2.353-7.555,5.268-.689,2.967,1.7,5.4,5.347,5.411H42.266L3.684,107.288c-3.626,2.775-4.8,7.393-2.512,10.313,2.316,2.973,7.246,2.978,10.909.017l20.977-17.166a32.582,32.582,0,0,0-.283,3.707c.631,11.742,9.583,22.627,20.667,27.448,19.1,8.46,44.886.715,52.138-21.331C109.027,98.71,106.383,84.958,93.909,75.07ZM58.386,116.063c-15.085-7.9-15.085-27.742,0-35.638s34.043,2.028,34.043,17.819S73.47,123.959,58.386,116.063Zm4.594-7.105c-9.622-5.032-9.622-17.682,0-22.714S84.694,87.536,84.694,97.6,72.6,113.99,62.98,108.958Z" transform="translate(388.956 5928.161)"/></g></svg>