<svg xmlns="http://www.w3.org/2000/svg" width="152" height="152" viewBox="0 0 152 152"><defs><style>.a{fill:#fff;}.b{fill:#1a1a1a;}</style></defs><g transform="translate(-370 -5947)"><circle class="a" cx="76" cy="76" r="76" transform="translate(370 5947)"/><g transform="translate(386.229 5960.329)"><path class="b" d="M107.461,28.553,62.8,2.847A5.483,5.483,0,0,0,59.933,2.2a6.56,6.56,0,0,0-2.867.647l-44.385,25.8A6.354,6.354,0,0,0,10,33.639v51.5a5.432,5.432,0,0,0,.925,3.236l98.756-57.33a6.549,6.549,0,0,0-2.219-2.5Z" transform="translate(0)"/><path class="b" d="M10.7,90.63a5.311,5.311,0,0,0,1.757,1.757l44.57,25.8a5.483,5.483,0,0,0,2.867.647,6.56,6.56,0,0,0,2.867-.647l44.385-25.8a6.354,6.354,0,0,0,2.682-4.993v-51.5a5.251,5.251,0,0,0-.555-2.589L10.7,90.63Z" transform="translate(-0.053 -2.342)"/><path class="a" d="M80.721,72.214a22.7,22.7,0,1,1,0-22.285l12.021-6.935a36.513,36.513,0,1,0-.092,36.248L80.721,72.214Zm10.819-9.154.832-3.976H88.488V54.737H93.2L94.313,49h4.531l-1.11,5.641h3.514L102.358,49H106.8l-1.11,5.641h2.219v4.346h-3.051l-.832,3.976h3.884v4.346H103.19l-1.11,5.548H97.55l1.11-5.548H95.146l-1.11,5.548H89.6l1.11-5.548H88.488V62.967h3.051Zm4.438,0h3.514l.832-3.976H96.81Z" transform="translate(-1.092 -1.68)"/></g></g></svg>