<svg xmlns="http://www.w3.org/2000/svg" viewBox="0 0 224.66 59"><defs><style>.cls-1{isolation:isolate;}.cls-2{fill:#fff;}.cls-3{fill:#1a1a1a;}.cls-4{fill:none;}</style></defs><g id="Layer_2" data-name="Layer 2"><g id="Layer_1-2" data-name="Layer 1"><g id="Group_42" data-name="Group 42"><g id="Atomic" class="cls-1"><g class="cls-1"><path class="cls-2" d="M97,40.54H87.53L86,45H79.58l9.14-25.27h7.13L105,45H98.48Zm-1.58-4.76-3.13-9.25-3.1,9.25Z"/><path class="cls-2" d="M125.94,19.73v4.93h-6.69V45h-6.16V24.66H106.4V19.73Z"/><path class="cls-2" d="M134.46,43.6A12.49,12.49,0,0,1,129.74,39,13,13,0,0,1,128,32.29a12.88,12.88,0,0,1,1.74-6.66A12.51,12.51,0,0,1,134.46,21a13.77,13.77,0,0,1,13.07,0,12.19,12.19,0,0,1,4.68,4.61,13.15,13.15,0,0,1,1.71,6.66A13.07,13.07,0,0,1,152.19,39a12.38,12.38,0,0,1-4.68,4.63,13.73,13.73,0,0,1-13,0Zm11.37-6a7.61,7.61,0,0,0,1.82-5.33A7.59,7.59,0,0,0,145.83,27,6.19,6.19,0,0,0,141,25a6.32,6.32,0,0,0-4.88,2,7.63,7.63,0,0,0-1.81,5.36,7.65,7.65,0,0,0,1.81,5.35,6.3,6.3,0,0,0,4.88,2A6.21,6.21,0,0,0,145.83,37.62Z"/><path class="cls-2" d="M186,19.73V45H179.8V29.84L174.15,45h-5l-5.69-15.19V45h-6.15V19.73h7.27l7.09,17.49,7-17.49Z"/><path class="cls-2" d="M196.54,19.73V45h-6.16V19.73Z"/><path class="cls-2" d="M201.58,25.65a11.55,11.55,0,0,1,4.52-4.57,13.13,13.13,0,0,1,6.57-1.64,12.51,12.51,0,0,1,7.7,2.38,11.37,11.37,0,0,1,4.29,6.48h-6.77a5.57,5.57,0,0,0-2.14-2.42,6.07,6.07,0,0,0-3.15-.82A5.87,5.87,0,0,0,208,27a7.64,7.64,0,0,0-1.77,5.29A7.64,7.64,0,0,0,208,37.62a5.87,5.87,0,0,0,4.61,2,6.07,6.07,0,0,0,3.15-.83,5.48,5.48,0,0,0,2.14-2.41h6.77a11.29,11.29,0,0,1-4.29,6.46,12.63,12.63,0,0,1-7.7,2.36,13.13,13.13,0,0,1-6.57-1.64A11.63,11.63,0,0,1,201.58,39,13.51,13.51,0,0,1,200,32.33,13.59,13.59,0,0,1,201.58,25.65Z"/></g></g><g id="Group_37" data-name="Group 37"><g id="Rectangle_483" data-name="Rectangle 483"><path class="cls-2" d="M29.5,0H59V29.5A29.5,29.5,0,0,1,29.5,59h0A29.5,29.5,0,0,1,0,29.5H0A29.5,29.5,0,0,1,29.5,0Z"/></g><g id="Group_36" data-name="Group 36"><g id="A" class="cls-1"><g class="cls-1"><path class="cls-3" d="M34.25,43l-1-4.13H26.58L25.52,43h-7.3l7.72-22.41h8.37L41.58,43ZM30,25.47h-.16a11.15,11.15,0,0,1-.21,1.23c-.13.58-.76,3-1.9,7.38H32L30.45,28A18.3,18.3,0,0,1,30,25.47Z"/></g></g><g id="Ellipse_3" data-name="Ellipse 3"><ellipse class="cls-4" cx="30" cy="22.31" rx="22" ry="8.95"/><path class="cls-3" d="M30,32.15c-12.54,0-22-4.23-22-9.84s9.46-9.85,22-9.85,22,4.23,22,9.85S42.54,32.15,30,32.15Zm0-16.69c-10.87,0-19,3.61-19,6.85s8.13,6.84,19,6.84,19-3.61,19-6.84S40.87,15.46,30,15.46Z"/></g><g id="Ellipse_4" data-name="Ellipse 4"><circle class="cls-3" cx="30" cy="14" r="4"/></g></g></g></g></g></g></svg>