<svg xmlns="http://www.w3.org/2000/svg" width="227" height="59" viewBox="0 0 227 59"><defs><style>.a,.b{fill:#fff;}.a{font-size:36px;font-family:Poppins-Bold, Poppins;font-weight:700;}.c,.e{fill:#1a1a1a;}.c{font-size:32px;font-family:SegoeUIBlack, Segoe UI;}.d,.g{fill:none;}.d{stroke:#1a1a1a;stroke-width:3px;}.f{stroke:none;}</style></defs><g transform="translate(-856 -36)"><text class="a" transform="translate(935 81)"><tspan x="0" y="0">ATOMIC</tspan></text><g transform="translate(805 12)"><path class="b" d="M29.5,0H59a0,0,0,0,1,0,0V29.5A29.5,29.5,0,0,1,29.5,59h0A29.5,29.5,0,0,1,0,29.5v0A29.5,29.5,0,0,1,29.5,0Z" transform="translate(51 24)"/><g transform="translate(0 4)"><text class="c" transform="translate(69 63)"><tspan x="0" y="0">A</tspan></text><g class="d" transform="translate(59 33.351) scale(1 0.407)"><circle class="f" cx="22" cy="22" r="22"/><circle class="g" cx="22" cy="22" r="20.5"/></g><circle class="e" cx="4" cy="4" r="4" transform="translate(77 30)"/></g></g></g></svg>