<svg xmlns="http://www.w3.org/2000/svg" width="152" height="152" viewBox="0 0 152 152"><defs><style>.a{fill:#fff;}.b{fill:#1a1a1a;}</style></defs><g transform="translate(-370 -5947)"><circle class="a" cx="76" cy="76" r="76" transform="translate(370 5947)"/><path class="b" d="M28.913,29.753c8.4-15.835,30.921-16.666,40.431-1.492A23.428,23.428,0,0,1,61.209,60.9L54.183,48.728a9.284,9.284,0,1,0-9.287.006L37.865,60.912A23.377,23.377,0,0,1,28.913,29.753Zm3.758,57.071A9.29,9.29,0,1,1,28,78.8l7.044-12.2a23.357,23.357,0,1,0,11.7,20.227H32.671ZM87.863,66.65,80.837,78.819a9.284,9.284,0,1,1-9.246-.006L64.56,66.635a23.377,23.377,0,0,0-8.972,31.171c8.405,15.835,30.921,16.666,40.431,1.492A23.428,23.428,0,0,0,87.863,66.65Z" transform="translate(397.206 5955.895)"/></g></svg>