<svg xmlns="http://www.w3.org/2000/svg" width="152" height="152" viewBox="0 0 152 152"><defs><style>.a{fill:#fff;}.b{fill:#1a1a1a;fill-rule:evenodd;}</style></defs><g transform="translate(-370 -5947)"><circle class="a" cx="76" cy="76" r="76" transform="translate(370 5947)"/><g transform="translate(391.088 5970.133)"><g transform="translate(6.501 0)"><path class="b" d="M290.742,309.268v2.983h23.395c0,3.636,0,7.173,0,10.708a.6.6,0,0,1-.021.1,10.588,10.588,0,0,1-4.61,6.967,27.254,27.254,0,0,1-9.97,3.993,38.1,38.1,0,0,1-24.053-2.055,20.73,20.73,0,0,1-5.114-3.316,9.254,9.254,0,0,1-3.28-7.337c-.007-7.552-.078-15.1.022-22.654a11.907,11.907,0,0,1,12.146-11.9c7.545-.022,15.091-.105,22.633.022a15.249,15.249,0,0,0,15.156-12.931,18.361,18.361,0,0,0,.138-2.531c.016-2.962.006-5.924.006-8.886v-1.145h3.405c1.756,0,3.512.014,5.268,0a10.226,10.226,0,0,1,9.426,5.352,28.042,28.042,0,0,1,2.994,8.41,46.508,46.508,0,0,1,1.294,13.647,37.349,37.349,0,0,1-4.56,15.3c-1.989,3.653-5.153,5.31-9.3,5.3-11.219-.037-22.439-.012-33.658-.012Zm13.267,9.011a4.388,4.388,0,0,0-4.472,4.413,4.413,4.413,0,1,0,8.824.128A4.406,4.406,0,0,0,304.009,318.279Z" transform="translate(-241.846 -235.995)"/><path class="b" d="M55.278,25.284V22.3H31.842a5.059,5.059,0,0,1-.1-.672c.014-3.32-.052-6.643.072-9.959.2-5.285,2.315-8.149,7.408-9.57A57.147,57.147,0,0,1,48.684.353a66.656,66.656,0,0,1,18.752.719A14.424,14.424,0,0,1,76.43,6.291,10.821,10.821,0,0,1,78.9,13.228c0,7.519.036,15.039-.011,22.558a11.774,11.774,0,0,1-12.1,11.98c-7.61.013-15.22,0-22.831.006A15,15,0,0,0,29.016,60.108a16.332,16.332,0,0,0-.224,2.913c-.028,3.027-.01,6.055-.01,9.082v1.17c-.723,0-1.332,0-1.941,0-2.406-.022-4.816.041-7.216-.091a10.893,10.893,0,0,1-8.7-5.2A25.075,25.075,0,0,1,7.7,59.465a44.747,44.747,0,0,1,.652-22.953c2-7.069,7.435-11.212,14.8-11.224q15.464-.026,30.928,0ZM42,7.3a4.417,4.417,0,0,0-4.36,4.533A4.412,4.412,0,1,0,42,7.3Z" transform="translate(-6.501 -0.001)"/></g></g></g></svg>