<svg xmlns="http://www.w3.org/2000/svg" width="152" height="152" viewBox="0 0 152 152"><defs><style>.a{fill:#292929;}.b{fill:#fff;}</style></defs><g transform="translate(-370 -5947)"><circle class="a" cx="76" cy="76" r="76" transform="translate(370 5947)"/><path class="b" d="M97.415,26.351,59.834,4.552a8.132,8.132,0,0,0-7.855,0L14.1,26.351A8.09,8.09,0,0,0,10,33.224v43.54a8.147,8.147,0,0,0,4.139,6.881l9.985,5.694c4.791,2.36,6.118,2.36,8.3,2.36,7.1,0,10.78-4.29,10.78-11.772V36.942c0-.607.38-1.51-.217-1.51H38.2c-.606,0-1.807.9-1.807,1.509V79.926c0,3.317-3.078,6.618-8.685,3.814l-10.32-5.971a1.142,1.142,0,0,1-.576-1.005V33.224a1.4,1.4,0,0,1,.759-1.033L55.351,10.43a1.284,1.284,0,0,1,1.2,0L93.983,32.186c.358.215.3.615.3,1.038v43.54c0,.415.078.82-.275,1.02L56.437,99.558a1.1,1.1,0,0,1-1.094,0l-9.635-5.746a.939.939,0,0,0-.919-.073A25.064,25.064,0,0,1,39.1,96.33c-.619.215-1.532.589.347,1.642l12.6,7.453a7.938,7.938,0,0,0,7.929,0L97.416,83.645a7.734,7.734,0,0,0,3.68-6.881V33.224a7.71,7.71,0,0,0-3.68-6.873ZM67.659,69.865c-9.984,0-12.182-2.754-12.915-7.718-.087-.535-.54-1.174-1.085-1.174H48.782c-.6,0-1.09.732-1.09,1.333,0,6.356,3.456,14.057,19.968,14.057,11.951,0,18.8-4.644,18.8-12.863,0-8.149-5.506-10.288-17.1-11.822C57.651,50.129,56.461,49.347,56.461,46.6c0-2.263,1.008-5.281,9.683-5.281,7.751,0,10.608,1.664,11.784,6.888a1.076,1.076,0,0,0,1.057.844h4.9a1.118,1.118,0,0,0,.8-.337,1.1,1.1,0,0,0,.286-.833c-.76-9-6.737-13.191-18.825-13.191-10.754,0-17.168,4.541-17.168,12.153,0,8.256,6.383,10.538,16.705,11.559,12.349,1.211,13.309,3.015,13.309,5.444C78.989,68.067,75.6,69.865,67.659,69.865Z" transform="translate(390.452 5967.987)"/></g></svg>