<svg xmlns="http://www.w3.org/2000/svg" width="152" height="152" viewBox="0 0 152 152"><defs><style>.a{fill:#292929;}.b{fill:#fff;}</style></defs><g transform="translate(-370 -5947)"><circle class="a" cx="76" cy="76" r="76" transform="translate(370 5947)"/><g transform="translate(391.048 5967.079)"><circle class="b" cx="9.752" cy="9.752" r="9.752" transform="translate(45.2 46.168)"/><path class="b" d="M91.994,39.838c-1.882-.684-3.85-1.369-5.9-1.968.513-2.053.941-4.106,1.283-6.074,1.8-11.292-.171-19.248-5.646-22.328A10.627,10.627,0,0,0,76.254,8.1c-5.988,0-13.6,4.448-21.3,11.891C47.253,12.548,39.64,8.1,33.651,8.1a10.627,10.627,0,0,0-5.475,1.369C22.7,12.634,20.734,20.59,22.53,31.8c.342,1.968.77,4.021,1.283,6.074a59.659,59.659,0,0,0-5.9,1.968C7.217,43.944,1.4,49.59,1.4,55.921S7.3,67.9,17.911,72c1.882.684,3.85,1.369,5.9,1.968-.513,2.053-.941,4.106-1.283,6.074-1.8,11.292.171,19.248,5.646,22.328a10.627,10.627,0,0,0,5.475,1.369c6.074,0,13.688-4.448,21.3-11.891,7.7,7.443,15.313,11.891,21.3,11.891a10.627,10.627,0,0,0,5.475-1.369c5.475-3.165,7.443-11.121,5.646-22.328-.342-1.968-.77-4.021-1.283-6.074A59.656,59.656,0,0,0,91.994,72C102.688,67.9,108.5,62.251,108.5,55.921S102.688,43.944,91.994,39.838ZM79.333,13.746c3.507,2.053,4.705,8.384,3.251,17.366a51.516,51.516,0,0,1-1.2,5.646A101.634,101.634,0,0,0,67.271,34.62a123.43,123.43,0,0,0-8.9-11.121c6.33-6.245,12.747-10.522,17.965-10.522a5.779,5.779,0,0,1,2.994.77ZM69.752,64.476c-1.54,2.738-3.336,5.475-5.218,8.213-3.165.257-6.33.342-9.581.342-3.336,0-6.5-.086-9.581-.342q-2.823-4.106-5.133-8.213c-1.625-2.823-3.165-5.732-4.534-8.555,1.369-2.823,2.909-5.732,4.534-8.555,1.54-2.738,3.336-5.475,5.218-8.213,3.165-.257,6.33-.342,9.581-.342,3.336,0,6.5.086,9.581.342q2.823,4.106,5.133,8.213c1.625,2.823,3.165,5.732,4.534,8.555C72.832,58.744,71.377,61.567,69.752,64.476Zm7.1-2.823c1.283,2.994,2.31,5.9,3.251,8.811-2.909.684-5.988,1.2-9.239,1.625,1.027-1.625,2.139-3.336,3.08-5.133,1.027-1.8,1.968-3.593,2.909-5.3Zm-21.9,23.183c-2.053-2.224-4.021-4.62-5.9-7.1,1.968.086,3.935.171,5.9.171s3.935-.086,5.9-.171C58.973,80.216,57.006,82.611,54.952,84.836ZM39.041,72c-3.251-.428-6.33-.941-9.239-1.625.941-2.823,1.968-5.817,3.251-8.811.941,1.711,1.882,3.507,2.909,5.218,1.027,1.882,2.053,3.507,3.08,5.218ZM33.052,50.189c-1.283-2.994-2.31-5.9-3.251-8.811,2.909-.684,5.988-1.2,9.239-1.625-1.027,1.625-2.139,3.336-3.08,5.133C34.934,46.682,33.993,48.478,33.052,50.189Zm21.9-23.183c2.053,2.224,4.021,4.62,5.9,7.1-1.968-.086-3.935-.171-5.9-.171s-3.935.086-5.9.171c1.882-2.481,3.85-4.876,5.9-7.1ZM73.944,44.971l-3.08-5.133c3.251.428,6.33.941,9.239,1.625-.941,2.823-1.968,5.817-3.251,8.811C75.911,48.478,74.97,46.682,73.944,44.971ZM27.321,31.112c-1.454-8.982-.257-15.313,3.251-17.366a5.779,5.779,0,0,1,2.994-.77c5.133,0,11.549,4.192,17.965,10.522a112.453,112.453,0,0,0-8.9,11.121,116.307,116.307,0,0,0-14.115,2.139c-.513-1.968-.855-3.85-1.2-5.646ZM6.191,55.921c0-4.021,4.876-8.3,13.431-11.463a51.291,51.291,0,0,1,5.475-1.8,124.691,124.691,0,0,0,5.133,13.345A107.8,107.8,0,0,0,25.1,69.266C13.291,65.844,6.191,60.711,6.191,55.921ZM30.572,98.1c-3.507-2.053-4.705-8.384-3.251-17.366a51.513,51.513,0,0,1,1.2-5.646,101.635,101.635,0,0,0,14.115,2.139,123.43,123.43,0,0,0,8.9,11.121C45.2,94.588,38.784,98.865,33.566,98.865a5.779,5.779,0,0,1-2.994-.77ZM82.584,80.729c1.454,8.982.257,15.313-3.251,17.366a5.779,5.779,0,0,1-2.994.77c-5.133,0-11.549-4.192-17.965-10.522a112.455,112.455,0,0,0,8.9-11.121,116.306,116.306,0,0,0,14.115-2.139C81.9,77.051,82.242,78.933,82.584,80.729Zm7.7-13.345a51.292,51.292,0,0,1-5.475,1.8,124.689,124.689,0,0,0-5.133-13.345,107.8,107.8,0,0,0,5.133-13.26C96.614,46,103.714,51.13,103.714,55.921,103.714,59.942,98.753,64.219,90.283,67.384Z"/></g></g></svg>