<svg xmlns="http://www.w3.org/2000/svg" width="152" height="152" viewBox="0 0 152 152"><defs><style>.a{fill:#292929;}.b{fill:#fff;}</style></defs><g transform="translate(-370 -5947)"><circle class="a" cx="76" cy="76" r="76" transform="translate(370 5947)"/><path class="b" d="M44.989,81.935H30.273L2.59,53.744,30.273,25.553H44.989L52.375,12.81,90.658,3,101.2,41,93.816,53.744,101.2,66.486l-10.543,38-38.283-9.81L44.989,81.935m.789-1.41L74.7,88.306,58.013,59.382H24.635L45.778,80.525m38.734,2.142,7.781-28.924L84.513,24.82,67.767,53.744,84.513,82.668M45.778,26.962,24.635,48.105H58.013L74.7,19.182Z" transform="translate(385.849 5965.93)"/></g></svg>