<svg xmlns="http://www.w3.org/2000/svg" width="152" height="152" viewBox="0 0 152 152"><defs><style>.a{fill:#292929;}.b{fill:#fff;}</style></defs><g transform="translate(-370 -5947)"><circle class="a" cx="76" cy="76" r="76" transform="translate(370 5947)"/><path class="b" d="M44.037,42.792H35.149V28.579H45.755c5.41,0,8.416,2.4,8.416,6.827,0,4.809-3.564,7.385-10.134,7.385m1.589,4.852H35.149v15.63H46.141c6.7,0,10.219-2.705,10.219-7.858s-3.65-7.772-10.735-7.772M87.877,16.213V73.665A14.313,14.313,0,0,1,73.665,87.877H16.213A14.313,14.313,0,0,1,2,73.665V16.213A14.313,14.313,0,0,1,16.213,2H73.665A14.313,14.313,0,0,1,87.877,16.213M62.114,55.673c0-5.926-3.95-10.176-10-10.949v-.258c4.294-.773,7.686-5.067,7.686-9.7,0-6.656-5.153-11.078-12.71-11.078H29.61V68.169H46.957C56.446,68.169,62.114,63.488,62.114,55.673Z" transform="translate(401.061 5978.062)"/></g></svg>