<svg xmlns="http://www.w3.org/2000/svg" width="24.177" height="24.177" viewBox="0 0 24.177 24.177"><defs><style>.a{fill:#272418;}</style></defs><path class="a" d="M154.334,352.515q-.252.047-.22.236t.283.126q.252-.063.22-.22Q154.586,352.484,154.334,352.515Z" transform="translate(-145.614 -333.076)"/><path class="a" d="M137.582,354.812c-.168,0-.252.057-.252.173q0,.2.268.173.252,0,.252-.173Q137.85,354.781,137.582,354.812Z" transform="translate(-129.759 -335.247)"/><path class="a" d="M119.424,351.846q-.063.173.2.236.236.094.3-.095.047-.173-.2-.252C119.566,351.694,119.466,351.731,119.424,351.846Z" transform="translate(-112.829 -332.329)"/><path class="a" d="M22.847,1.33A4.366,4.366,0,0,0,19.643,0H4.533a4.367,4.367,0,0,0-3.2,1.33A4.367,4.367,0,0,0,0,4.533V19.644a4.366,4.366,0,0,0,1.33,3.2,4.367,4.367,0,0,0,3.2,1.33H8.059a4.256,4.256,0,0,0,.519-.023.609.609,0,0,0,.346-.2.733.733,0,0,0,.173-.527q0-.047-.008-1.07t-.008-1.621l-.362.063a4.633,4.633,0,0,1-.874.055,6.722,6.722,0,0,1-1.094-.11A2.452,2.452,0,0,1,5.7,20.265a2,2,0,0,1-.692-.968l-.157-.362a3.932,3.932,0,0,0-.5-.8,1.9,1.9,0,0,0-.685-.6l-.11-.079a1.157,1.157,0,0,1-.2-.189.875.875,0,0,1-.142-.22q-.047-.11.079-.181a1.023,1.023,0,0,1,.456-.071l.315.047a2.3,2.3,0,0,1,.779.378,2.54,2.54,0,0,1,.763.818,2.774,2.774,0,0,0,.874.984,1.852,1.852,0,0,0,1.031.339,4.472,4.472,0,0,0,.9-.079,3.134,3.134,0,0,0,.708-.236,2.551,2.551,0,0,1,.771-1.621,10.778,10.778,0,0,1-1.613-.283,6.43,6.43,0,0,1-1.479-.614,4.236,4.236,0,0,1-1.267-1.055A5.07,5.07,0,0,1,4.7,13.819a7.861,7.861,0,0,1-.323-2.361A4.591,4.591,0,0,1,5.619,8.215,4.232,4.232,0,0,1,5.729,5a2.205,2.205,0,0,1,1.354.213A9.493,9.493,0,0,1,8.4,5.823q.417.252.669.425a11.364,11.364,0,0,1,6.044,0l.6-.378a8.467,8.467,0,0,1,1.448-.693A2.062,2.062,0,0,1,18.432,5a4.19,4.19,0,0,1,.126,3.211A4.592,4.592,0,0,1,19.8,11.458a7.936,7.936,0,0,1-.323,2.369,4.863,4.863,0,0,1-.834,1.653,4.4,4.4,0,0,1-1.275,1.047,6.421,6.421,0,0,1-1.48.614,10.771,10.771,0,0,1-1.613.284,2.8,2.8,0,0,1,.818,2.235v3.762a1.013,1.013,0,0,0,.079.433.435.435,0,0,0,.252.228,1.4,1.4,0,0,0,.307.079,3.534,3.534,0,0,0,.386.016h3.526a4.541,4.541,0,0,0,4.533-4.533V4.533A4.367,4.367,0,0,0,22.847,1.33Z"/><path class="a" d="M85.968,318.545q-.11.078.032.252.158.157.252.047.11-.078-.032-.252Q86.062,318.45,85.968,318.545Z" transform="translate(-81.183 -300.948)"/><path class="a" d="M77.188,311.21q-.047.11.11.189a.134.134,0,0,0,.2-.031q.047-.11-.11-.189Q77.235,311.131,77.188,311.21Z" transform="translate(-72.922 -294.006)"/><path class="a" d="M94.431,329.668q-.142.078,0,.283t.268.11q.142-.11,0-.3C94.614,329.626,94.525,329.594,94.431,329.668Z" transform="translate(-89.158 -311.456)"/><path class="a" d="M104.646,342.136c-.094.084-.074.183.063.3s.231.141.315.047.063-.183-.063-.3S104.73,342.041,104.646,342.136Z" transform="translate(-98.822 -323.216)"/></svg>