<svg id="Layer_1" data-name="Layer 1" xmlns="http://www.w3.org/2000/svg" viewBox="0 0 358.97 68.88"><defs><style>.cls-1{isolation:isolate;}.cls-2{fill:#272418;}.cls-3{fill:#fff;}</style></defs><g id="Group_70" data-name="Group 70"><g id="WebinAiR" class="cls-1"><g class="cls-1"><path class="cls-2" d="M890.4,497.32l-11,42.12H867l-6.72-27.72-7,27.72H840.9l-10.68-42.12h11L847.26,528l7.5-30.66H866l7.2,30.66,6.12-30.66Z" transform="translate(-748.02 -478.33)"/><path class="cls-2" d="M926.93,525.16H903.71a7,7,0,0,0,2,4.77,6.14,6.14,0,0,0,4.35,1.65,5.39,5.39,0,0,0,5.34-3.24h10.92a15,15,0,0,1-3,5.94,15.17,15.17,0,0,1-5.49,4.14,17.63,17.63,0,0,1-7.38,1.5,18,18,0,0,1-8.76-2.1,14.94,14.94,0,0,1-6-6,18.52,18.52,0,0,1-2.16-9.12,18.73,18.73,0,0,1,2.13-9.12,14.74,14.74,0,0,1,6-6,18.08,18.08,0,0,1,8.82-2.1,17.9,17.9,0,0,1,8.64,2,14.65,14.65,0,0,1,5.91,5.82,17.67,17.67,0,0,1,2.13,8.82A26.19,26.19,0,0,1,926.93,525.16Zm-10.32-5.7a5.28,5.28,0,0,0-1.8-4.2,6.63,6.63,0,0,0-4.5-1.56,6.5,6.5,0,0,0-4.35,1.5,6.66,6.66,0,0,0-2.19,4.26Z" transform="translate(-748.02 -478.33)"/><path class="cls-2" d="M946.91,506.92a12.93,12.93,0,0,1,6.18-1.44,13.86,13.86,0,0,1,7.5,2.1,14.55,14.55,0,0,1,5.31,6,22.09,22.09,0,0,1,0,18.15,14.72,14.72,0,0,1-5.31,6.06,13.72,13.72,0,0,1-7.5,2.13,12.93,12.93,0,0,1-6.18-1.41,10.9,10.9,0,0,1-4.14-3.75v4.68H932.51V495h10.26V510.7A10.56,10.56,0,0,1,946.91,506.92Zm8.37,9.69a7,7,0,0,0-5.25-2.19,6.92,6.92,0,0,0-5.19,2.22,9.69,9.69,0,0,0,0,12.12,7.18,7.18,0,0,0,10.41,0,8.43,8.43,0,0,0,2.16-6.09A8.28,8.28,0,0,0,955.28,516.61Z" transform="translate(-748.02 -478.33)"/></g><g class="cls-1"><path class="cls-2" d="M972.51,513.74a3.63,3.63,0,0,1,0-5.28,4.13,4.13,0,0,1,2.94-1.06,4.07,4.07,0,0,1,2.9,1.06,3.63,3.63,0,0,1,0,5.28,4.11,4.11,0,0,1-2.9,1.06A4.18,4.18,0,0,1,972.51,513.74Zm6.34,3.38v22.32H972V517.12Z" transform="translate(-748.02 -478.33)"/><path class="cls-2" d="M1003.67,519.42a9.9,9.9,0,0,1,2.34,7v13h-6.8V527.32a4.85,4.85,0,0,0-1.16-3.48,4.55,4.55,0,0,0-6.24,0,4.89,4.89,0,0,0-1.16,3.48v12.12h-6.84V517.12h6.84v3a7.23,7.23,0,0,1,2.8-2.34,8.85,8.85,0,0,1,4-.86A8.07,8.07,0,0,1,1003.67,519.42Z" transform="translate(-748.02 -478.33)"/></g><g class="cls-1"><path class="cls-2" d="M1038.23,532h-15.72l-2.52,7.44h-10.74l15.24-42.12h11.88l15.24,42.12h-10.86Zm-2.64-7.92-5.22-15.42-5.16,15.42Z" transform="translate(-748.02 -478.33)"/><path class="cls-2" d="M1057,500.89a5.15,5.15,0,0,1-1.71-3.93,5.22,5.22,0,0,1,1.71-4,6.22,6.22,0,0,1,4.41-1.59,6.14,6.14,0,0,1,4.35,1.59,5.22,5.22,0,0,1,1.71,4,5.15,5.15,0,0,1-1.71,3.93,6.14,6.14,0,0,1-4.35,1.59A6.22,6.22,0,0,1,1057,500.89Zm9.51,5.07v33.48h-10.26V506Z" transform="translate(-748.02 -478.33)"/><path class="cls-2" d="M1095.41,539.44l-8.76-15.9h-2.46v15.9h-10.26V497.32h17.22a19,19,0,0,1,8.49,1.74,12,12,0,0,1,5.25,4.77,13.31,13.31,0,0,1,1.74,6.75,12.54,12.54,0,0,1-2.37,7.5,12.76,12.76,0,0,1-7,4.68l9.72,16.68Zm-11.22-23.16h6.36a5.82,5.82,0,0,0,4.23-1.38,5.21,5.21,0,0,0,1.41-3.9,5,5,0,0,0-1.41-3.78,5.82,5.82,0,0,0-4.23-1.38h-6.36Z" transform="translate(-748.02 -478.33)"/></g></g><g id="Group_67" data-name="Group 67"><g id="Group_65" data-name="Group 65"><g id="Ellipse_10" data-name="Ellipse 10"><circle class="cls-3" cx="28.01" cy="40.88" r="28"/><path class="cls-2" d="M776,547.21a28,28,0,0,1-17.21-50.1l1.84,2.37A24.81,24.81,0,0,0,752,512.34a25,25,0,1,0,39.35-12.9l1.84-2.38A28,28,0,0,1,776,547.21Z" transform="translate(-748.02 -478.33)"/></g></g><g id="augmented-reality"><g id="Path_41" data-name="Path 41"><path class="cls-2" d="M775.1,478.58l-14.79,8.54a1.86,1.86,0,0,0-.93,1.6v17.09a1.86,1.86,0,0,0,.93,1.6l14.77,8.53a1.88,1.88,0,0,0,1.89,0l14.77-8.53a1.84,1.84,0,0,0,.93-1.6V488.72a1.84,1.84,0,0,0-.93-1.6L777,478.58A1.85,1.85,0,0,0,775.1,478.58Zm-12,13.34,11.1,6.41v12.81l-11.1-6.4Zm14.79,19.22V498.33l11.1-6.41v12.81Zm9.25-22.42L776,495.13l-11.1-6.41,11.1-6.4Z" transform="translate(-748.02 -478.33)"/></g></g><g id="web" class="cls-1"><g class="cls-1"><path class="cls-2" d="M770.65,521.37h2.16l-3.72,8.82h-1.9l-1.5-3.79-1.46,3.79h-1.91l-3.74-8.82h2.16l2.65,6.67,1-2.88-1.55-3.79h1.89l.92,2.71.93-2.71h1.89L767,525.16,768,528Z" transform="translate(-748.02 -478.33)"/><path class="cls-2" d="M777.69,530.36a5,5,0,0,1-1.94-.36,4.47,4.47,0,0,1-1.48-1,4.4,4.4,0,0,1-.93-1.44,4.51,4.51,0,0,1-.32-1.73,4.75,4.75,0,0,1,.57-2.3,4.33,4.33,0,0,1,1.61-1.68,4.77,4.77,0,0,1,2.51-.63,4.69,4.69,0,0,1,2.48.63,4.47,4.47,0,0,1,1.6,1.66,4.65,4.65,0,0,1,.56,2.24c0,.15,0,.28,0,.41s0,.24,0,.33h-6.87a2.36,2.36,0,0,0,.38,1.19,2.3,2.3,0,0,0,.85.76,2.47,2.47,0,0,0,1.1.26,2.67,2.67,0,0,0,1.3-.33,1.72,1.72,0,0,0,.82-.89l1.94.54a3.48,3.48,0,0,1-.9,1.21,4.29,4.29,0,0,1-1.41.82A5.22,5.22,0,0,1,777.69,530.36Zm-2.33-5.29H780a2.53,2.53,0,0,0-.38-1.15,2.27,2.27,0,0,0-.83-.77,2.4,2.4,0,0,0-1.14-.27,2.34,2.34,0,0,0-1.11.27,2.22,2.22,0,0,0-.81.77A2.66,2.66,0,0,0,775.36,525.07Z" transform="translate(-748.02 -478.33)"/><path class="cls-2" d="M788.81,530.36a3.54,3.54,0,0,1-1.82-.46,3.31,3.31,0,0,1-1.26-1.26v1.55h-2V517.78H786V523a3.82,3.82,0,0,1,1.27-1.26,3.72,3.72,0,0,1,3.39-.1,3.86,3.86,0,0,1,1.24,1,5,5,0,0,1,.8,1.47,5.2,5.2,0,0,1,.29,1.76,4.84,4.84,0,0,1-.32,1.77,4.76,4.76,0,0,1-.89,1.45,4.06,4.06,0,0,1-1.32,1A3.9,3.9,0,0,1,788.81,530.36Zm-.65-1.94a2.4,2.4,0,0,0,1-.2,2.18,2.18,0,0,0,.8-.56,2.74,2.74,0,0,0,.5-.82,2.8,2.8,0,0,0,.18-1,3.08,3.08,0,0,0-.29-1.3,2.47,2.47,0,0,0-.82-1,2,2,0,0,0-1.22-.37,2.11,2.11,0,0,0-1,.23,3.15,3.15,0,0,0-.8.61,3.39,3.39,0,0,0-.57.86V527a2.58,2.58,0,0,0,.36.6,1.8,1.8,0,0,0,.53.46,3.07,3.07,0,0,0,.64.29A1.82,1.82,0,0,0,788.16,528.42Z" transform="translate(-748.02 -478.33)"/></g></g></g></g></svg>