<svg xmlns="http://www.w3.org/2000/svg" width="197" height="197" viewBox="0 0 197 197"><defs><style>.a{fill:#292929;}.b{fill:#fff;}</style></defs><g transform="translate(-861 -5977)"><g transform="translate(461)"><g transform="translate(400.309 5977.309)"><circle class="a" cx="98.5" cy="98.5" r="98.5" transform="translate(-0.309 -0.309)"/><path class="b" d="M57.266,104.791H38.29L2.59,68.437l35.7-36.354H57.266l9.525-16.432L116.16,3l13.6,49.005-9.525,16.432,9.525,16.432-13.6,49.005L66.791,121.223l-9.525-16.432m1.018-1.818,37.3,10.034-21.522-37.3H31.019l27.266,27.266m49.95,2.763,10.034-37.3-10.034-37.3L86.64,68.437l21.594,37.3M58.284,33.9,31.019,61.166H74.062l21.522-37.3Z" transform="translate(21.188 25.28)"/></g></g></g></svg>